<svg width="64" height="64" viewBox="0 0 64 64" fill="none" xmlns="http://www.w3.org/2000/svg">
  <!-- Central Gear (Automation) -->
  <path fill-rule="evenodd" clip-rule="evenodd" d="M32 46C39.732 46 46 39.732 46 32C46 24.268 39.732 18 32 18C24.268 18 18 24.268 18 32C18 39.732 24.268 46 32 46ZM32 52C43.0457 52 52 43.0457 52 32C52 20.9543 43.0457 12 32 12C20.9543 12 12 20.9543 12 32C12 43.0457 20.9543 52 32 52Z" fill="#1890FF"/>
  <path d="M32 10V4M32 60V54M54 32H60M4 32H10" stroke="#1890FF" stroke-width="4" stroke-linecap="round"/>
  
  <!-- Network Legs (Crawler/Spider aspect) -->
  <path d="M46 18L54 10" stroke="#52C41A" stroke-width="4" stroke-linecap="round"/>
  <path d="M18 18L10 10" stroke="#52C41A" stroke-width="4" stroke-linecap="round"/>
  <path d="M46 46L54 54" stroke="#52C41A" stroke-width="4" stroke-linecap="round"/>
  <path d="M18 46L10 54" stroke="#52C41A" stroke-width="4" stroke-linecap="round"/>
  
  <!-- Central Node -->
  <circle cx="32" cy="32" r="8" fill="#1890FF"/>
  <circle cx="32" cy="32" r="4" fill="white"/>
</svg>
